<svg xmlns="http://www.w3.org/2000/svg" viewBox="0 0 197.23 51.39"><defs><style>.cls-1{fill:#001738;}</style></defs><title>logomarca</title><g id="Camada_2" data-name="Camada 2"><g id="parte1"><path class="cls-1" d="M71.42,18.78h.22A16.11,16.11,0,0,1,87.92,35v.23q0,7.52-6.29,12.77a16.5,16.5,0,0,1-10,3.4h-.23a16.38,16.38,0,0,1-12.79-6.12A19.11,19.11,0,0,1,56,40.5a17.18,17.18,0,0,1-.88-5.32V35a16.16,16.16,0,0,1,6.09-12.64A16.36,16.36,0,0,1,68.7,19,13.24,13.24,0,0,1,71.42,18.78ZM61.61,35a10.07,10.07,0,0,0,3.33,7.47,9.48,9.48,0,0,0,6.23,2.54h.63a9.71,9.71,0,0,0,5.34-1.79A10.14,10.14,0,0,0,81,38a11.29,11.29,0,0,0,.45-2.88,10,10,0,0,0-3.24-7.36,9.83,9.83,0,0,0-6.65-2.69,9.82,9.82,0,0,0-9.26,6.61A9.75,9.75,0,0,0,61.61,35Z"/><path class="cls-1" d="M107.73,51.39a16.27,16.27,0,0,1-13.11-6.48,11.74,11.74,0,0,1-1.42-2.24,14,14,0,0,1-1.2-3,22,22,0,0,1-.68-6.16V18.78h6.56V34.22q0,7.8,7.05,10.42a11.41,11.41,0,0,0,2.8.48,11.7,11.7,0,0,0,2.83-.48q7.05-2.62,7-10.42V18.78h6.54V33.52a22.34,22.34,0,0,1-.68,6.16,15.11,15.11,0,0,1-1.2,3,14,14,0,0,1-1.4,2.24A16.34,16.34,0,0,1,107.73,51.39Z"/><path class="cls-1" d="M137.92,18.78h22v6.7H137.71A3,3,0,0,0,134.52,28v.48a2.92,2.92,0,0,0,1.7,2.53,2.85,2.85,0,0,0,1.08.21h11.17q4.29,0,5.84.88a9.67,9.67,0,0,1,5.25,5.19,11.85,11.85,0,0,1,.82,4.19q0,4.89-4.58,8.24a11,11,0,0,1-3.12,1.33,22.1,22.1,0,0,1-4.37.3H127.57l0-6.7h22.28a3.41,3.41,0,0,0,3.58-2.77l0-.61a3.26,3.26,0,0,0-1.93-3,3.69,3.69,0,0,0-1.74-.36H137.26a9.94,9.94,0,0,1-8.2-4.3,9.3,9.3,0,0,1-1.43-4.82V28q0-5,4.9-7.95A10.42,10.42,0,0,1,137.92,18.78Z"/><path class="cls-1" d="M181.52,18.74H196.6V51.39h-6.54V25.1l-5.84,0h-1.41c-3.26,0-5.07.14-5.43.41a9.27,9.27,0,0,0-4.94,3.37,10.8,10.8,0,0,0-2.17,6.18,10.13,10.13,0,0,0,2.94,7,8.91,8.91,0,0,0,3.4,2.27,11.86,11.86,0,0,0,4.91.72h4.55v6.32h-5.45a16.41,16.41,0,0,1-10.26-3.2,15,15,0,0,1-4.05-4.34,15.34,15.34,0,0,1-2.54-8.24v-1a15.81,15.81,0,0,1,4.42-10.8,15.34,15.34,0,0,1,4.37-3.28,16.58,16.58,0,0,1,3.37-1.29A22,22,0,0,1,181.52,18.74Z"/><path class="cls-1" d="M60.18,2.33h.22L64.72,13H62.41L62,11.86h-3.4L58.18,13H55.86Zm1,7.61-.94-2.67-1,2.67Z"/><path class="cls-1" d="M65.8,10.15a4.65,4.65,0,0,0,2.93.82,1,1,0,0,0,1.06-1c0-.59-.49-.85-1.06-1-1.61-.59-3-1.41-3-3.13a3,3,0,0,1,2.9-3.13,6,6,0,0,1,2.56.43l-.26,2a4.55,4.55,0,0,0-2.09-.43,1,1,0,0,0-1,1.15c0,.57.56.83,1.14,1,1.6.59,3,1.51,3,3.15a3,3,0,0,1-3.1,3.11,6.41,6.41,0,0,1-3.25-.74Z"/><path class="cls-1" d="M73.25,10.15a4.66,4.66,0,0,0,2.93.82,1,1,0,0,0,1.07-1c0-.59-.49-.85-1.07-1-1.61-.59-3-1.41-3-3.13A3,3,0,0,1,76,2.63a6.07,6.07,0,0,1,2.56.43l-.26,2a4.58,4.58,0,0,0-2.1-.43,1,1,0,0,0-1,1.15c.06.57.56.83,1.15,1,1.59.59,3,1.51,3,3.15a3,3,0,0,1-3.1,3.11A6.39,6.39,0,0,1,73,12.31Z"/><path class="cls-1" d="M80.92,13V2.7H83V13Z"/><path class="cls-1" d="M84.93,10.15a4.66,4.66,0,0,0,2.93.82,1,1,0,0,0,1.06-1c0-.59-.48-.85-1.06-1-1.61-.59-3-1.41-3-3.13a3,3,0,0,1,2.9-3.13,6,6,0,0,1,2.55.43L90,5a4.6,4.6,0,0,0-2.1-.43,1,1,0,0,0-1,1.15c.06.57.56.83,1.15,1,1.59.59,3,1.51,3,3.15a3,3,0,0,1-3.1,3.11,6.43,6.43,0,0,1-3.25-.74Z"/><path class="cls-1" d="M94.3,13V4.75H91.74v-2h7.17v2H96.35V13Z"/><path class="cls-1" d="M103.46,1.92l-.53-.64-.5.64h-2.14l2-1.92h1.31l2,1.92ZM100.32,13V2.7h5.14V4.75h-3.09V6.81h2.7V8.86h-2.7v2.05h3.26V13Z"/><path class="cls-1" d="M109.47,13h-2.06V2.48H108l5.18,6V2.71h2.07V13.18h-.55l-5.19-5.8Z"/><path class="cls-1" d="M122.13,4.64c-4.06,0-4.06,6.26,0,6.26a4.43,4.43,0,0,0,2-.46l.27,2.12a6.53,6.53,0,0,1-2.26.43c-7,0-6.94-10.42,0-10.42a5.07,5.07,0,0,1,2,.4l-.24,2.11A3.53,3.53,0,0,0,122.13,4.64Z"/><path class="cls-1" d="M125.89,13V2.7h2V13Z"/><path class="cls-1" d="M133.51,2.33h.22L138.05,13h-2.31l-.42-1.11h-3.4l-.4,1.11h-2.33Zm1.05,7.61-.93-2.67-1,2.67Z"/><path class="cls-1" d="M145,13V4.75h-2.56v-2h7.17v2H147V13Z"/><path class="cls-1" d="M151,13V2.7h5.14V4.75h-3.09V6.81h2.7V8.86h-2.7v2.05h3.26V13ZM155.78.34,154.4,2h-1.85l.7-1.66Z"/><path class="cls-1" d="M162.84,4.64c-4.06,0-4.06,6.26,0,6.26a4.46,4.46,0,0,0,2-.46l.27,2.12a6.53,6.53,0,0,1-2.26.43c-7,0-7-10.42,0-10.42a5.07,5.07,0,0,1,2,.4l-.24,2.11A3.56,3.56,0,0,0,162.84,4.64Z"/><path class="cls-1" d="M168.65,13H166.6V2.48h.54l5.19,6V2.71h2.06V13.18h-.54l-5.2-5.8Z"/><path class="cls-1" d="M176.57,13V2.7h2.05V13Z"/><path class="cls-1" d="M185.54,4.64c-4.06,0-4.06,6.26,0,6.26a4.41,4.41,0,0,0,2-.46l.27,2.12a6.47,6.47,0,0,1-2.25.43c-7,0-6.95-10.42,0-10.42a5.07,5.07,0,0,1,2,.4l-.25,2.11A3.52,3.52,0,0,0,185.54,4.64Z"/><path class="cls-1" d="M192.7,2.33h.21L197.23,13h-2.31l-.42-1.11h-3.4L190.7,13h-2.33Zm1,7.61-.93-2.67-1,2.67Z"/><path class="cls-1" d="M16.1.35H50.23v10.4H15.78a4.62,4.62,0,0,0-4.95,4v.74c0,1.57.87,2.88,2.63,3.94a4.61,4.61,0,0,0,1.69.31H32.48q6.68,0,9.06,1.37a15,15,0,0,1,8.16,8.05A18.41,18.41,0,0,1,51,35.64q0,7.59-7.09,12.79A17.55,17.55,0,0,1,39,50.5a34.35,34.35,0,0,1-6.78.46H0l0-10.4H34.59a5.29,5.29,0,0,0,5.55-4.29l.07-1a5.07,5.07,0,0,0-3-4.64,5.76,5.76,0,0,0-2.7-.56H15.08q-7.63,0-12.73-6.68A14.47,14.47,0,0,1,.14,16V14.58q0-7.8,7.59-12.33A16.11,16.11,0,0,1,16.1.35Z"/></g></g></svg>