<svg id="Camada_1" data-name="Camada 1" xmlns="http://www.w3.org/2000/svg" viewBox="0 0 600 600"><defs><style>.cls-1{fill:#b3b3b3;}.cls-2{fill:#999;}.cls-3{fill:#ccc;}.cls-4{fill:#e6e6e6;}.cls-5{fill:#f2f2f2;}</style></defs><title>logo</title><polygon class="cls-1" points="464.83 188.07 407.88 188.07 407.88 115.27 464.83 115.27 464.83 123.61 464.83 179.46 464.83 188.07"/><polygon class="cls-2" points="464.83 134 407.88 134 407.88 115.27 464.83 115.27 464.83 117.41 464.83 131.78 464.83 134"/><polygon class="cls-3" points="464.83 188.07 407.88 188.07 407.88 169.33 464.83 169.33 464.83 171.48 464.83 185.85 464.83 188.07"/><path class="cls-2" d="M229.83,411.36h160.6a37.8,37.8,0,0,0,0-75.6H209.57a109.57,109.57,0,1,1,0-219.13H371.45V188.4H209.57a37.8,37.8,0,1,0,0,75.59H390.43a109.57,109.57,0,0,1,0,219.14H229.83Z"/><path class="cls-3" d="M500,373.56A109.69,109.69,0,0,0,390.43,264H209.57a37.8,37.8,0,1,1,0-75.59H367V154.17H209.57c-32.45,0-78.95,39.58-78.95,72s46.5,74.38,78.95,74.38l180.86,1c48.81,0,77,23.21,77,72s-28.23,76.3-77,76.3H229.83v33.27h160.6A109.68,109.68,0,0,0,500,373.56Z"/><path class="cls-1" d="M209.57,137.68a88.52,88.52,0,1,0,0,177H390.43a58.85,58.85,0,0,1,0,117.7H229.67v29.67H390.43a88.52,88.52,0,1,0,0-177H209.57a58.86,58.86,0,0,1,0-117.71H372.73V137.68Z"/><polygon class="cls-1" points="137.54 482.31 194.48 482.31 194.48 409.51 137.54 409.51 137.54 417.85 137.54 473.7 137.54 482.31"/><polygon class="cls-2" points="137.54 428.25 194.49 428.25 194.49 409.51 137.54 409.51 137.54 411.66 137.54 426.03 137.54 428.25"/><polygon class="cls-3" points="137.54 482.31 194.48 482.31 194.48 463.58 137.54 463.58 137.54 465.73 137.54 480.1 137.54 482.31"/><polygon class="cls-1" points="183.48 495.56 212.68 495.56 212.68 398.69 183.48 398.69 183.48 409.79 183.48 484.1 183.48 495.56"/><polygon class="cls-2" points="183.49 421.55 212.68 421.55 212.68 398.69 183.49 398.69 183.49 401.31 183.49 418.85 183.49 421.55"/><polygon class="cls-3" points="183.49 483.43 212.68 483.43 212.68 469.5 183.49 469.5 183.49 471.1 183.49 481.79 183.49 483.43"/><polygon class="cls-4" points="206.93 502.42 244.73 502.42 244.73 391.82 206.93 391.82 206.93 404.5 206.93 489.34 206.93 502.42"/><polygon class="cls-3" points="206.93 414.32 244.73 414.32 244.73 391.82 206.93 391.82 206.93 394.4 206.93 411.66 206.93 414.32"/><polygon class="cls-5" points="206.93 488.96 244.73 488.96 244.73 466.46 206.93 466.46 206.93 469.04 206.93 486.3 206.93 488.96"/><polygon class="cls-1" points="418.88 201.31 389.69 201.31 389.69 104.44 418.88 104.44 418.88 115.55 418.88 189.85 418.88 201.31"/><polygon class="cls-2" points="418.88 127.31 389.69 127.31 389.69 104.44 418.88 104.44 418.88 107.07 418.88 124.6 418.88 127.31"/><polygon class="cls-3" points="418.88 189.19 389.69 189.19 389.69 175.26 418.88 175.26 418.88 176.86 418.88 187.54 418.88 189.19"/><polygon class="cls-4" points="395.44 208.18 357.64 208.18 357.64 97.58 395.44 97.58 395.44 110.25 395.44 195.1 395.44 208.18"/><polygon class="cls-3" points="395.44 120.08 357.64 120.08 357.64 97.58 395.44 97.58 395.44 100.16 395.44 117.42 395.44 120.08"/><polygon class="cls-5" points="395.44 194.72 357.64 194.72 357.64 172.22 395.44 172.22 395.44 174.8 395.44 192.06 395.44 194.72"/></svg>